<?xml version="1.0" standalone="no"?>
<!DOCTYPE svg PUBLIC "-//W3C//DTD SVG 20010904//EN"
 "http://www.w3.org/TR/2001/REC-SVG-20010904/DTD/svg10.dtd">
<svg version="1.0" xmlns="http://www.w3.org/2000/svg"
 width="1280.000000pt" height="640.000000pt" viewBox="0 0 1280.000000 640.000000"
 preserveAspectRatio="xMidYMid meet">
<g transform="translate(0.000000,640.000000) scale(0.100000,-0.100000)"
fill="#eda276" stroke="none">
<path d="M7580 4813 c-45 -4 -170 -22 -240 -34 -80 -15 -491 -154 -587 -200
-44 -21 -146 -82 -225 -134 -78 -53 -153 -98 -164 -101 -16 -4 -69 23 -188 95
-289 175 -487 267 -661 306 -187 42 -302 56 -506 62 -241 7 -336 -5 -634 -83
-298 -78 -649 -249 -1300 -632 -757 -447 -1275 -718 -1567 -821 -254 -89 -479
-78 -600 29 -118 103 -152 199 -152 430 0 220 25 309 129 455 84 119 164 171
304 197 93 17 250 0 286 -32 18 -16 87 -31 160 -34 29 -1 30 1 33 46 3 46 2
48 -32 62 -19 8 -42 25 -51 39 -17 26 -150 81 -270 112 -175 45 -405 41 -554
-10 -96 -32 -339 -163 -360 -193 -9 -13 -44 -56 -77 -95 -148 -174 -248 -385
-300 -637 -29 -140 -30 -175 -3 -365 58 -423 152 -644 390 -922 162 -187 267
-268 516 -392 203 -101 465 -191 783 -269 256 -63 292 -69 644 -103 311 -30
1097 59 1691 191 466 103 1122 327 1497 510 223 108 377 208 601 389 65 53
137 111 159 128 22 18 51 33 63 33 24 0 113 -62 275 -194 189 -154 390 -279
633 -396 347 -166 717 -293 1227 -420 485 -121 770 -163 1259 -186 712 -34
1062 -4 1495 127 72 22 169 52 216 65 160 48 373 152 580 283 171 108 308 233
391 357 213 317 274 443 317 660 53 267 54 320 2 603 -37 205 -124 371 -300
575 -105 121 -167 176 -291 256 -175 113 -329 158 -504 147 -213 -13 -372 -89
-551 -263 -70 -69 -81 -89 -87 -164 -2 -23 1 -25 52 -28 l53 -3 65 66 c89 90
126 108 238 113 148 7 251 -32 372 -142 69 -62 165 -206 192 -287 43 -133 46
-358 6 -480 -21 -62 -93 -128 -202 -186 -123 -65 -191 -84 -329 -90 -178 -8
-237 5 -508 116 -182 75 -370 184 -786 455 -600 390 -804 517 -1045 649 -261
142 -527 246 -725 281 -251 45 -668 75 -830 59z"/>
</g>
</svg>
